<?xml version="1.0" encoding="UTF-8"?>
<svg xmlns="http://www.w3.org/2000/svg" viewBox="0 0 20 20">
<style>
.Red {fill: #D11C1C;}
.Yellow {fill: #FFB115;}
.Green {fill: #039C23;}
.Blue {fill: #1177D7; }
.Black {fill: #727272;}
.White {fill: #FFFFFF;}
</style>
<title>Bold_20x20</title>
<path d="M5.23,4.23h6.11c2.87,0,4.3,1,4.3,3a2.74,2.74,0,0,1-1.51,2.43,2.89,2.89,0,0,1,2.1,3,3.74,3.74,0,0,1-.38,1.76,2.78,2.78,0,0,1-1.06,1.14,4.87,4.87,0,0,1-1.46.59,7.82,7.82,0,0,1-1.74.18H5.23ZM8.84,7V8.85h2.09a1.2,1.2,0,0,0,.82-.25.82.82,0,0,0,.3-.67c0-.63-.43-.95-1.29-.95Zm0,4.2v2.28h2.29c.94,0,1.41-.38,1.41-1.13s-.47-1.15-1.41-1.15Z" class="Black"/>
</svg>