<?xml version="1.0" encoding="UTF-8"?>
<svg xmlns="http://www.w3.org/2000/svg" viewBox="0 0 20 20">
<style>
.Red {fill: #D11C1C;}
.Yellow {fill: #FFB115;}
.Green {fill: #039C23;}
.Blue {fill: #1177D7; }
.Black {fill: #727272;}
.White {fill: #FFFFFF;}
</style>
<title>Cut_20x20</title>
<path d="M11,7.65,17.62,1l-4,9.21ZM7.92,15.54A3.42,3.42,0,0,1,4.46,19a3.46,3.46,0,0,1,0-6.92A3.42,3.42,0,0,1,7.92,15.54Zm-1.38,0a2,2,0,0,0-2.08-2.08,2.08,2.08,0,1,0,0,4.16A2,2,0,0,0,6.54,15.54Zm12.38-.86a3.47,3.47,0,1,1-6.84.55,3.26,3.26,0,0,1,.41-1.43L10.69,12H7.23L2.38.92l11.5,11.5A3.09,3.09,0,0,1,15.31,12,3.46,3.46,0,0,1,18.92,14.68Zm-1.3.86a2.08,2.08,0,1,0-2.08,2.08A2,2,0,0,0,17.62,15.54Z" class="Black"/>
</svg>