<?xml version="1.0" encoding="UTF-8"?>
<svg xmlns="http://www.w3.org/2000/svg" viewBox="0 0 20 20">
<style>
.Red {fill: #D11C1C;}
.Yellow {fill: #FFB115;}
.Green {fill: #039C23;}
.Blue {fill: #1177D7; }
.Black {fill: #727272;}
.White {fill: #FFFFFF;}
</style>
<title>Highlight_20x20</title>
<rect y="15" width="20" height="5" style="fill:none"/>
<path d="M6.29,10.43H4.7a2.31,2.31,0,0,1-.11-.55,2.47,2.47,0,0,1-1.84.72,2.19,2.19,0,0,1-1.48-.46A1.55,1.55,0,0,1,.73,8.88a2.11,2.11,0,0,1,.09-.64,1.21,1.21,0,0,1,.31-.46,4.43,4.43,0,0,1,.41-.31,1.8,1.8,0,0,1,.53-.19l.55-.12c.14,0,.34,0,.59-.08a5.41,5.41,0,0,0,1.1-.23.44.44,0,0,0,.28-.45c0-.51-.34-.76-1-.76a1.3,1.3,0,0,0-.79.19,1,1,0,0,0-.33.68H1c.09-1.28,1-1.92,2.63-1.92s2.48.62,2.48,1.85V8.89A4.05,4.05,0,0,0,6.29,10.43ZM4.58,7.67a3.54,3.54,0,0,1-1.1.3,2.16,2.16,0,0,0-.9.27.73.73,0,0,0-.24.58.69.69,0,0,0,.22.55.89.89,0,0,0,.64.2,1.47,1.47,0,0,0,1-.33,1.18,1.18,0,0,0,.38-.93Z" class="Black"/>
<path d="M8.86,2.6V5.45a2.17,2.17,0,0,1,1.79-.82,2.16,2.16,0,0,1,1.79.82,3.3,3.3,0,0,1,.64,2.09,3.4,3.4,0,0,1-.69,2.21,2.28,2.28,0,0,1-1.83.84,2,2,0,0,1-1.78-.87v.71H7.31V2.6Zm1.31,3.22a1.22,1.22,0,0,0-1,.47,2,2,0,0,0-.36,1.27,2.11,2.11,0,0,0,.36,1.3,1.19,1.19,0,0,0,1,.47,1.16,1.16,0,0,0,1-.48,2.07,2.07,0,0,0,.37-1.3,1.94,1.94,0,0,0-.37-1.25A1.16,1.16,0,0,0,10.17,5.82Z" class="Black"/>
<polygon points="13 14 11 12 10 13 10 15 12 15 13 14" class="Blue"/>
<polyline points="12 11 14 13 18 9 16 7" class="Blue"/>
<path d="M17,6l2,2,.29-.29a1,1,0,0,0,0-1.42l-.58-.58a1,1,0,0,0-1.42,0" class="Blue"/>
<path d="M2,16v4H18V16Zm15,1.33V19H3V17H17Z"  class="Black" opacity="0.62" />
</svg>