<?xml version="1.0" encoding="UTF-8"?>
<svg xmlns="http://www.w3.org/2000/svg" viewBox="0 0 20 20">
<style>
.Red {fill: #D11C1C;}
.Yellow {fill: #FFB115;}
.Green {fill: #039C23;}
.Blue {fill: #1177D7; }
.Black {fill: #727272;}
.White {fill: #FFFFFF;}
</style>
<title>InsertImage_20x20</title>
<polygon points="3 15 11 15 5 9 3 11 3 15" class="Green"/>
<polygon points="10 12 13 15 17 15 12 10 10 12" class="Green" opacity="0.62" />
<circle cx="14.5" cy="7.5" r="2.5" class="Yellow"/>
<path d="M18.1,3H1.9a.89.89,0,0,0-.9.88V16.13a.88.88,0,0,0,.9.87H18.1a.88.88,0,0,0,.9-.87V3.88A.89.89,0,0,0,18.1,3ZM18,16H2V4H18Z" class="Black"/>
</svg>