<?xml version="1.0" encoding="UTF-8"?>
<svg xmlns="http://www.w3.org/2000/svg" viewBox="0 0 20 20">
<style>
.Red {fill: #D11C1C;}
.Yellow {fill: #FFB115;}
.Green {fill: #039C23;}
.Blue {fill: #1177D7; }
.Black {fill: #727272;}
.White {fill: #FFFFFF;}
</style>
<title>Underline_20x20</title>
<path d="M15,4.43v7.28a5.15,5.15,0,0,1-1.25,3.83,5.37,5.37,0,0,1-3.9,1.24A5.44,5.44,0,0,1,5.9,15.53a5.25,5.25,0,0,1-1.27-3.86V4.43H7.29v7.24a3.51,3.51,0,0,0,.56,2.2,2.47,2.47,0,0,0,2,.71,2.26,2.26,0,0,0,1.94-.71,3.74,3.74,0,0,0,.52-2.2V4.43Z" class="Black"/>
<rect x="4" y="18" width="12" height="2" class="Black"/>
</svg>